<svg xmlns="http://www.w3.org/2000/svg" xmlns:xlink="http://www.w3.org/1999/xlink" width="90" height="90" viewBox="0 0 90 90"><defs><style>.a{fill:#31969E;}.b{clip-path:url(#a);}</style><clipPath id="a"><rect class="a" width="90" height="90" transform="translate(169.903 155.619)"/></clipPath></defs><g class="b" transform="translate(-169.903 -155.619)"><g transform="translate(170.008 156.147)"><path class="a" d="M44.792,0A44.792,44.792,0,1,0,89.585,44.792,44.792,44.792,0,0,0,44.792,0Zm0,83.186A38.393,38.393,0,1,1,83.186,44.792,38.393,38.393,0,0,1,44.792,83.186Z"/><g transform="translate(19.157 25.635)"><path class="a" d="M57.7,10.914a3.2,3.2,0,0,0-4.445,0h0L23.521,40.646,12.985,30.11a3.2,3.2,0,0,0-4.6,4.445l.079.079,12.8,12.8a3.2,3.2,0,0,0,4.524,0L57.778,15.437A3.2,3.2,0,0,0,57.7,10.914Z" transform="translate(-7.485 -10.015)"/></g></g></g></svg>