<svg xmlns="http://www.w3.org/2000/svg" xmlns:xlink="http://www.w3.org/1999/xlink" width="40" height="40" viewBox="0 0 40 40"><defs><style>.a{fill:#eaecef;}.b{clip-path:url(#a);}.c{fill:url(#b);}.d{fill:#fff;}</style><clipPath id="a"><circle class="a" cx="20" cy="20" r="20" transform="translate(203 1145)"/></clipPath><linearGradient id="b" y1="1" x2="1" gradientUnits="objectBoundingBox"><stop offset="0" stop-color="#fd5"/><stop offset="0.5" stop-color="#ff543e"/><stop offset="1" stop-color="#c837ab"/></linearGradient></defs><g class="b" transform="translate(-203 -1145)"><g transform="translate(203.12 1145.064)"><path class="c" d="M2.492,2.713C-.641,5.968,0,9.426,0,19.93,0,28.653-1.522,37.4,6.443,39.457c2.487.64,24.526.64,27.01,0,3.316-.856,6.015-3.546,6.384-8.236.052-.655.052-21.908,0-22.576-.392-5-3.468-7.876-7.52-8.459C31.387.048,31.2.008,26.435,0,9.532.008,5.827-.744,2.492,2.713Z"/><path class="d" d="M19.935,5.216c-6.033,0-11.762-.537-13.95,5.079-.9,2.32-.773,5.332-.773,9.645,0,3.785-.121,7.342.773,9.644,2.183,5.619,7.959,5.081,13.947,5.081,5.777,0,11.734.6,13.949-5.081.906-2.343.773-5.31.773-9.644,0-5.752.317-9.466-2.472-12.254-2.825-2.825-6.645-2.471-12.252-2.471ZM18.616,7.869C31.2,7.849,32.8,6.45,31.918,25.885,31.6,32.759,26.37,32,19.937,32,8.206,32,7.869,31.669,7.869,19.934c0-11.872.93-12.058,10.747-12.068Zm9.178,2.444a1.766,1.766,0,1,0,1.766,1.766A1.766,1.766,0,0,0,27.794,10.313Zm-7.859,2.065a7.561,7.561,0,1,0,7.558,7.562,7.561,7.561,0,0,0-7.558-7.562Zm0,2.653c6.488,0,6.5,9.816,0,9.816S13.439,15.032,19.935,15.032Z"/></g></g></svg>