<svg xmlns="http://www.w3.org/2000/svg" width="161.537" height="24.962" viewBox="0 0 161.537 24.962"><defs><style>.a{fill:#fff;}</style></defs><g transform="translate(51.025 -373.402)"><g transform="translate(17.113 373.402)"><g transform="translate(75.894 0.024)"><path class="a" d="M453.943,427.284c0,1.659-.468,2.687-1.406,3.066a13.663,13.663,0,0,1-3.643.272l1.785,3.641h-3.267l-1.587-3.641h-5.806a4.211,4.211,0,0,1-2.758-.681,3.523,3.523,0,0,1-.757-2.65v-7.446a3.523,3.523,0,0,1,.757-2.65,4.211,4.211,0,0,1,2.758-.681h10.422a4.21,4.21,0,0,1,2.758.681,3.523,3.523,0,0,1,.757,2.65v7.446Zm-3.3.681V419H439.79v8.961h4.85l-1.316-3.066,2.38-.953,1.906,4.021Z" transform="translate(-436.477 -416.492)"/></g><g transform="translate(0 21.72)"><path class="a" d="M19.006,539.272c0,.306-.054.505-.18.595a.916.916,0,0,1-.632.162H16.217a.847.847,0,0,1-.649-.181,1,1,0,0,1-.162-.667l.667-.144v.378h2.272v-.739h-2a.953.953,0,0,1-.632-.162.839.839,0,0,1-.162-.595v-.361a.781.781,0,0,1,.162-.595.915.915,0,0,1,.632-.162h1.821a.915.915,0,0,1,.632.162.862.862,0,0,1,.162.612l-.667.162v-.361h-2.1v.681h2a.953.953,0,0,1,.632.162.833.833,0,0,1,.18.595Z" transform="translate(-15.399 -536.796)"/></g><g transform="translate(4.761 21.763)"><path class="a" d="M45.966,537l-1.695,1.73v1.443h-.757v-1.424L41.8,537h1.028l1.118,1.19L45.081,537Z" transform="translate(-41.8 -537)"/></g><g transform="translate(9.936 21.773)"><path class="a" d="M74.069,539.5a.758.758,0,0,1-.18.595.928.928,0,0,1-.632.144H71.317a.847.847,0,0,1-.649-.18,1.029,1.029,0,0,1-.162-.667l.649-.127v.378h2.254v-.721h-1.99a.977.977,0,0,1-.613-.144.84.84,0,0,1-.162-.6v-.343a.839.839,0,0,1,.162-.595.9.9,0,0,1,.613-.144h1.8a.953.953,0,0,1,.632.162.761.761,0,0,1,.162.595l-.649.144v-.357H71.294v.681h1.983a1.08,1.08,0,0,1,.632.144.835.835,0,0,1,.18.595v.433Z" transform="translate(-70.5 -537.095)"/></g><g transform="translate(14.858 21.744)"><path class="a" d="M101.406,537.477H99.963v2.633h-.721v-2.633H97.8V536.9h3.606Z" transform="translate(-97.8 -536.9)"/></g><g transform="translate(19.78 21.744)"><path class="a" d="M128.328,540.11H125.1V536.9h3.191v.56h-2.469v.7h1.443v.558h-1.443v.794h2.506Z" transform="translate(-125.1 -536.9)"/></g><g transform="translate(24.882 21.744)"><path class="a" d="M157.493,540.11h-.681v-2.2l-1.334,1.821h-.144l-1.352-1.77v2.145H153.4V536.9h.577l1.461,1.894,1.443-1.894h.577v3.21Z" transform="translate(-153.4 -536.9)"/></g><g transform="translate(30.832 21.736)"><path class="a" d="M190.006,539.318a.758.758,0,0,1-.18.595.916.916,0,0,1-.632.162h-1.978a.847.847,0,0,1-.649-.181,1,1,0,0,1-.162-.667l.649-.127v.378h2.254v-.721h-2a.953.953,0,0,1-.632-.162.84.84,0,0,1-.162-.595v-.343a.839.839,0,0,1,.162-.595.916.916,0,0,1,.632-.162h1.815a.916.916,0,0,1,.632.162.862.862,0,0,1,.162.613l-.649.162v-.361h-2.091v.681h2.042a.953.953,0,0,1,.632.162.833.833,0,0,1,.18.595v.4Z" transform="translate(-186.399 -536.895)"/></g><g transform="translate(47.276 21.773)"><path class="a" d="M281.188,539.5a.758.758,0,0,1-.18.595.953.953,0,0,1-.632.144h-1.96a.848.848,0,0,1-.649-.18,1.031,1.031,0,0,1-.162-.667l.649-.127v.378h2.254v-.721h-1.983a.979.979,0,0,1-.613-.144.839.839,0,0,1-.162-.595v-.343a.838.838,0,0,1,.162-.595.9.9,0,0,1,.613-.144h1.8a.953.953,0,0,1,.632.162c.127.108.162.306.162.595l-.649.144v-.357h-2.073v.681h1.983a1.081,1.081,0,0,1,.632.144.835.835,0,0,1,.18.595Z" transform="translate(-277.6 -537.095)"/></g><g transform="translate(52.787 21.721)"><path class="a" d="M312.078,539.252a.781.781,0,0,1-.162.595.9.9,0,0,1-.613.144h-2.326a1.016,1.016,0,0,1-.613-.144.832.832,0,0,1-.162-.613v-1.677a.862.862,0,0,1,.162-.613,1.013,1.013,0,0,1,.613-.144H311.3a1.014,1.014,0,0,1,.613.144.832.832,0,0,1,.162.613Zm-.721.144v-1.982h-2.416V539.4Z" transform="translate(-308.196 -536.796)"/></g><g transform="translate(58.688 21.726)"><path class="a" d="M344.073,537.377h-2.434v.829h1.316v.595h-1.316v1.19H340.9V536.8h3.191v.577Z" transform="translate(-340.9 -536.8)"/></g><g transform="translate(38.926 21.809)"><path class="a" d="M235.628,540.421h-.973l-.523-.433c-.234.2-.361.306-.4.324a.884.884,0,0,1-.487.107h-1.154c-.361,0-.595-.072-.681-.216a1.5,1.5,0,0,1-.108-.721.459.459,0,0,1,.108-.343.944.944,0,0,1,.306-.234l.649-.378a.782.782,0,0,1-.234-.289,1.576,1.576,0,0,1-.037-.361.5.5,0,0,1,.234-.487,1.311,1.311,0,0,1,.559-.09h.649a1.152,1.152,0,0,1,.595.108.569.569,0,0,1,.2.523v.18l-.577.09v-.408h-1.045v.216l1.515,1.225.739-.613.408.361-.739.595Zm-1.947-.794-.973-.775-.829.505v.545h1.5Z" transform="translate(-231.299 -537.295)"/></g><g transform="translate(11.071)"><path class="a" d="M92.455,418.824H86.193v11.612H83.039V418.824H76.8V416.3H92.455Z" transform="translate(-76.8 -416.3)"/></g><g transform="translate(34.33 0.018)"><path class="a" d="M219.539,418.85H208.955v3.733h5.717v2.578h-5.717v5.373H205.8V416.4h13.739Z" transform="translate(-205.8 -416.4)"/></g><g transform="translate(49.926 0.035)"><path class="a" d="M310.813,430.635h-3.552l-1.623-3.1h-8.6l-1.586,3.1H292.3l7.68-14.135h3.047Zm-6.491-5.662-2.921-5.751-3.029,5.751Z" transform="translate(-292.3 -416.5)"/></g><g transform="translate(62.565 21.726)"><path class="a" d="M366.043,537.377h-1.465v2.614h-.739v-2.614H362.4V536.8h3.624v.577Z" transform="translate(-362.4 -536.8)"/></g><g transform="translate(66.91 21.726)"><path class="a" d="M391.693,536.8l-1.207,3.191h-.505l-.866-2.254-.883,2.254h-.506L386.5,536.8h.757l.794,2.218.847-2.218h.505l.829,2.218.776-2.218Z" transform="translate(-386.5 -536.8)"/></g><g transform="translate(72.896 21.726)"><path class="a" d="M423.991,539.991h-.829l-.378-.7H420.8l-.378.7H419.7l1.785-3.191h.7Zm-1.5-1.28-.7-1.334-.667,1.334Z" transform="translate(-419.7 -536.8)"/></g><g transform="translate(78.653 21.744)"><path class="a" d="M455.314,540.091h-1.045l-1.262-1.209h-.681v1.209H451.6V536.9h2.7c.468,0,.7.2.7.613v.757a.529.529,0,0,1-.378.577,4.8,4.8,0,0,1-.739.037Zm-.991-2.019v-.355c0-.162-.109-.252-.324-.252h-1.659v.883H454c.215-.025.323-.1.323-.276Z" transform="translate(-451.604 -536.9)"/></g><g transform="translate(84.003 21.763)"><path class="a" d="M484.545,540.191H481.3V537h3.228v.56h-2.488v.681h1.443v.56h-1.443v.794h2.528v.595Z" transform="translate(-481.3 -537)"/></g><g transform="translate(88.935 21.738)"><path class="a" d="M512.2,539.352a.783.783,0,0,1-.162.595.9.9,0,0,1-.613.144h-1.947a.855.855,0,0,1-.632-.162,1.011,1.011,0,0,1-.144-.667l.649-.127v.378h2.2v-.739h-1.947a.953.953,0,0,1-.595-.144.778.778,0,0,1-.18-.613v-.361a.779.779,0,0,1,.18-.613.952.952,0,0,1,.595-.144h1.785a.979.979,0,0,1,.613.144.832.832,0,0,1,.162.613l-.63.144v-.343h-2.056v.667h1.947a1.016,1.016,0,0,1,.613.144.832.832,0,0,1,.162.613Z" transform="translate(-508.695 -536.896)"/></g><g transform="translate(0.884)"><path class="a" d="M23.617,430.435H20.3V416.3h3.317Z" transform="translate(-20.3 -416.3)"/></g></g><path class="a" d="M-18.66-5.38a4.2,4.2,0,0,1,2.45.6,2.064,2.064,0,0,1,.855,1.8,2.45,2.45,0,0,1-.234,1.116,1.921,1.921,0,0,1-.681.751,3.083,3.083,0,0,1-1.073.419,7.079,7.079,0,0,1-1.427.136h-.839V2.243h-1.056V-5.2a5.957,5.957,0,0,1,1-.147Q-19.118-5.38-18.66-5.38Zm.087.926q-.681,0-1.035.033V-1.46h.795a6.148,6.148,0,0,0,.98-.071,2.216,2.216,0,0,0,.735-.24,1.182,1.182,0,0,0,.463-.463,1.536,1.536,0,0,0,.163-.751A1.386,1.386,0,0,0-16.64-3.7a1.27,1.27,0,0,0-.457-.452,1.977,1.977,0,0,0-.67-.234A4.764,4.764,0,0,0-18.573-4.455ZM-9.338-.589a3.583,3.583,0,0,1-.2,1.225,2.789,2.789,0,0,1-.545.937,2.419,2.419,0,0,1-.844.6,2.656,2.656,0,0,1-1.078.2,2.656,2.656,0,0,1-1.067-.212,2.419,2.419,0,0,1-.839-.6,2.789,2.789,0,0,1-.545-.937,3.583,3.583,0,0,1-.2-1.225,3.6,3.6,0,0,1,.2-1.214,2.78,2.78,0,0,1,.545-.942,2.419,2.419,0,0,1,.844-.6A2.656,2.656,0,0,1-12-3.573a2.656,2.656,0,0,1,1.067.212,2.419,2.419,0,0,1,.844.6,2.78,2.78,0,0,1,.545.942,3.6,3.6,0,0,1,.2,1.225Zm-1.056,0a2.437,2.437,0,0,0-.43-1.525A1.4,1.4,0,0,0-12-2.674a1.4,1.4,0,0,0-1.171.561A2.437,2.437,0,0,0-13.6-.594a2.437,2.437,0,0,0,.43,1.519A1.4,1.4,0,0,0-12,1.486,1.4,1.4,0,0,0-10.825.925a2.437,2.437,0,0,0,.43-1.514Zm6.97,2.831q-.3-.784-.648-1.791t-.626-2.1Q-4.982-.556-5.32.451t-.643,1.791h-.882q-.5-1.122-.98-2.559t-.909-3.1h1.089q.109.512.261,1.111t.321,1.2q.169.6.354,1.154t.348.969Q-6.175.5-5.995-.077t.343-1.154q.163-.583.31-1.143t.256-1.051h.844q.1.49.24,1.051t.3,1.143q.163.583.343,1.154t.365,1.089Q-2.826.6-2.646.043t.354-1.154q.174-.6.327-1.2T-1.7-3.42H-.659q-.425,1.666-.9,3.1t-.98,2.559ZM.093-.578A3.614,3.614,0,0,1,.311-1.89a2.742,2.742,0,0,1,.577-.931,2.344,2.344,0,0,1,.828-.555,2.586,2.586,0,0,1,.953-.185,2.178,2.178,0,0,1,1.753.713A3.281,3.281,0,0,1,5.031-.67V-.5a1.542,1.542,0,0,1-.011.191H1.149a2.073,2.073,0,0,0,.512,1.329,1.873,1.873,0,0,0,1.394.463,3.715,3.715,0,0,0,.9-.093,3.238,3.238,0,0,0,.545-.18l.136.849a3.011,3.011,0,0,1-.648.207,4.605,4.605,0,0,1-1.04.114,3.334,3.334,0,0,1-1.28-.223,2.388,2.388,0,0,1-.888-.621A2.51,2.51,0,0,1,.262.6,3.938,3.938,0,0,1,.093-.578Zm3.888-.555A1.7,1.7,0,0,0,3.638-2.26,1.182,1.182,0,0,0,2.663-2.7a1.335,1.335,0,0,0-.615.136,1.451,1.451,0,0,0-.452.354,1.634,1.634,0,0,0-.289.5,2.472,2.472,0,0,0-.136.577ZM8.587-3.54q.136,0,.3.016t.332.044q.163.027.3.054a1.827,1.827,0,0,1,.2.049l-.174.882a3.4,3.4,0,0,0-.4-.1,3.483,3.483,0,0,0-.713-.06,2.654,2.654,0,0,0-.561.06l-.365.082V2.243H6.5V-3.181a6.884,6.884,0,0,1,.893-.245A5.736,5.736,0,0,1,8.587-3.54Zm1.8,2.962A3.614,3.614,0,0,1,10.6-1.89a2.742,2.742,0,0,1,.577-.931,2.344,2.344,0,0,1,.828-.555,2.586,2.586,0,0,1,.953-.185,2.178,2.178,0,0,1,1.753.713,3.281,3.281,0,0,1,.61,2.178V-.5a1.542,1.542,0,0,1-.011.191H11.44a2.073,2.073,0,0,0,.517,1.329,1.873,1.873,0,0,0,1.389.463,3.715,3.715,0,0,0,.9-.093,3.238,3.238,0,0,0,.545-.18l.136.849a3.011,3.011,0,0,1-.648.207,4.605,4.605,0,0,1-1.04.114,3.334,3.334,0,0,1-1.28-.229,2.388,2.388,0,0,1-.888-.615A2.51,2.51,0,0,1,10.553.6a3.938,3.938,0,0,1-.169-1.182Zm3.888-.555a1.7,1.7,0,0,0-.343-1.127,1.182,1.182,0,0,0-.975-.441,1.335,1.335,0,0,0-.615.136,1.451,1.451,0,0,0-.452.354,1.634,1.634,0,0,0-.289.5,2.472,2.472,0,0,0-.136.577Zm6.175-1.089a2.084,2.084,0,0,0-.534-.3,2.007,2.007,0,0,0-.762-.136A1.634,1.634,0,0,0,18.4-2.5a1.369,1.369,0,0,0-.506.436,1.84,1.84,0,0,0-.283.659,3.659,3.659,0,0,0-.087.817,2.2,2.2,0,0,0,.49,1.53,1.68,1.68,0,0,0,1.307.545,5.222,5.222,0,0,0,.692-.044,3.278,3.278,0,0,0,.43-.082Zm0-3.812,1.013-.174V2.079q-.348.1-.893.2a7.13,7.13,0,0,1-1.258.1,3.173,3.173,0,0,1-1.171-.212,2.52,2.52,0,0,1-.893-.588,2.6,2.6,0,0,1-.572-.931,3.575,3.575,0,0,1-.2-1.236,4.031,4.031,0,0,1,.169-1.2,2.686,2.686,0,0,1,.49-.937,2.252,2.252,0,0,1,.806-.615,2.567,2.567,0,0,1,1.089-.218,2.631,2.631,0,0,1,.866.136,2.733,2.733,0,0,1,.561.25ZM26.73-3.175a2.733,2.733,0,0,1,.561-.25,2.631,2.631,0,0,1,.866-.136,2.567,2.567,0,0,1,1.089.218,2.252,2.252,0,0,1,.8.61,2.686,2.686,0,0,1,.5.937,4.031,4.031,0,0,1,.169,1.2,3.575,3.575,0,0,1-.2,1.236,2.6,2.6,0,0,1-.572.931,2.52,2.52,0,0,1-.893.588,3.173,3.173,0,0,1-1.182.223,7.13,7.13,0,0,1-1.252-.1q-.545-.1-.893-.2V-6.034l1.013-.174Zm0,4.53a3.278,3.278,0,0,0,.43.082,5.222,5.222,0,0,0,.692.038A1.68,1.68,0,0,0,29.159.931a2.2,2.2,0,0,0,.5-1.519,3.659,3.659,0,0,0-.087-.817,1.841,1.841,0,0,0-.283-.659,1.369,1.369,0,0,0-.506-.436,1.634,1.634,0,0,0-.757-.158,2.007,2.007,0,0,0-.762.136,2.084,2.084,0,0,0-.534.294Zm4.6,1.944a1.926,1.926,0,0,0,.31.1,1.5,1.5,0,0,0,.376.049,1.474,1.474,0,0,0,.937-.272,2.3,2.3,0,0,0,.61-.866q-.681-1.307-1.28-2.772a24.082,24.082,0,0,1-.991-2.962h1.089q.12.49.289,1.056T33.041-1.2q.207.6.446,1.2t.5,1.154Q34.4.01,34.707-1.111t.577-2.314H36.33q-.392,1.6-.871,3.076T34.43,2.417a5.815,5.815,0,0,1-.452.844,2.544,2.544,0,0,1-.517.583,1.887,1.887,0,0,1-.637.338,2.723,2.723,0,0,1-.8.109,2.022,2.022,0,0,1-.25-.016,2.5,2.5,0,0,1-.256-.044q-.12-.027-.229-.06a1.119,1.119,0,0,1-.147-.054Z" transform="translate(-30.361 381.009)"/></g></svg>