<svg xmlns="http://www.w3.org/2000/svg" xmlns:xlink="http://www.w3.org/1999/xlink" width="150.635" height="32" viewBox="0 0 150.635 32"><defs><style>.a,.c{fill:#fff;}.b{clip-path:url(#a);}.c{stroke:rgba(0,0,0,0);stroke-miterlimit:10;stroke-width:0.189px;}</style><clipPath id="a"><rect class="a" width="32" height="31.941"/></clipPath></defs><g transform="translate(-60 -32)"><g class="b" transform="translate(60 32)"><path class="c" d="M3.7,23.2a1.28,1.28,0,0,1-1.276-1.294V9.333a4.615,4.615,0,0,0,1.16-.012A4.663,4.663,0,0,0,6.176,8.065c.031.03.062.06.094.089a4.637,4.637,0,0,0,6.338-.085,4.591,4.591,0,0,0,3.208,1.294,4.64,4.64,0,0,0,3.225-1.294,4.579,4.579,0,0,0,1.462.953c.051.021.1.041.151.059a4.838,4.838,0,0,0,.464.143,4.661,4.661,0,0,0,1.121.137h.029a4.566,4.566,0,0,0,3.18-1.309,4.649,4.649,0,0,0,1.83,1.095c.142.045.286.083.429.113.125.026.255.048.387.065l.159.017c.055,0,.111.012.166.012.084.007.168.007.251.007h.072a4.235,4.235,0,0,0,.5-.036V21.933A1.27,1.27,0,0,1,27.971,23.2H26.22V12.572a.989.989,0,0,0-.988-.987H20.192a.989.989,0,0,0-.988.987V23.2ZM5.45,12.57v5.772a.988.988,0,0,0,.988.986h8.75a.988.988,0,0,0,.988-.986V12.57a.988.988,0,0,0-.988-.986H6.438a.988.988,0,0,0-.988.986ZM20.193,23.2h0a.452.452,0,0,1-.452-.451V12.572a.449.449,0,0,1,.45-.449H25.23a.449.449,0,0,1,.45.449V22.746a.455.455,0,0,1-.456.455Zm.084-.536h4.864V12.659H20.276ZM6.425,18.791a.439.439,0,0,1-.439-.439V12.559a.439.439,0,0,1,.439-.439H15.2a.44.44,0,0,1,.44.439v5.793a.44.44,0,0,1-.44.439Zm.1-.538H15.1V12.659H6.525ZM13.1,6.455c-.026-.066-.05-.132-.071-.2l-.021-.069c-.019-.068-.037-.136-.052-.207a2.87,2.87,0,0,1-.063-.5V5.159h5.832v.319a2.978,2.978,0,0,1-.063.5c-.015.071-.033.139-.053.207-.006.023-.013.046-.02.069-.022.068-.046.134-.072.2a2.906,2.906,0,0,1-5.419,0Zm13.487.989c-.032-.034-.056-.059-.093-.1s-.085-.1-.107-.124-.041-.052-.064-.082-.046-.061-.068-.093a1.7,1.7,0,0,1-.1-.146l-.024-.039c-.014-.023-.027-.047-.041-.071a2.939,2.939,0,0,1-.371-1.433v-.2h5.9V5.45a.2.2,0,0,0,0,.028,2.988,2.988,0,0,1-.064.5c-.015.071-.033.139-.053.207l-.021.069c-.022.068-.046.134-.072.2a2.965,2.965,0,0,1-2.748,1.854,2.934,2.934,0,0,1-2.079-.865ZM19.5,6.458c-.027-.065-.05-.131-.072-.2L19.4,6.192c-.02-.068-.038-.136-.053-.207a2.65,2.65,0,0,1-.056-.561V5.159l5.868,0v.214A2.838,2.838,0,0,1,24.8,6.791c-.013.024-.034.058-.041.071s-.015.027-.023.039c-.035.047-.067.1-.1.146-.022.032-.046.065-.067.093s-.029.04-.064.082-.077.09-.107.124-.061.068-.093.1h0a2.917,2.917,0,0,1-2.074.865A2.953,2.953,0,0,1,19.5,6.458ZM9.386,8.309a2.916,2.916,0,0,1-2.07-.861l-.092-.1c-.037-.041-.085-.1-.107-.124s-.041-.052-.064-.082-.045-.061-.067-.093a1.311,1.311,0,0,1-.1-.146l-.024-.039c-.014-.023-.027-.047-.041-.071a3.033,3.033,0,0,1-.245-.582,2.948,2.948,0,0,1-.116-.84V5.159h5.866V5.42a2.644,2.644,0,0,1-.055.561c-.015.071-.032.139-.052.207l-.021.068c-.022.068-.046.134-.072.2A2.953,2.953,0,0,1,9.391,8.309Zm-6.426,0h0A2.963,2.963,0,0,1,.209,6.455c-.026-.066-.05-.132-.072-.2L.117,6.188C.1,6.12.079,6.051.064,5.981A2.973,2.973,0,0,1,0,5.48V5.159H5.906v.2a2.941,2.941,0,0,1-.372,1.433c-.013.024-.034.058-.041.071s-.015.027-.023.039c-.034.047-.066.1-.1.146-.022.032-.046.065-.067.093s-.029.04-.064.082-.077.09-.107.124-.062.068-.093.1a2.93,2.93,0,0,1-2.079.865ZM31.314,4.631h0Zm-31,0,0,0L6.352,0H9.483L5.845,4.616l-.011.015H.31Zm31,0h-5.52l-.012-.015L22.143,0h3.13l6.039,4.629,0,0ZM19.3,4.614,18.133,0h3.34l3.642,4.63H19.3Zm-3.482.017H12.894L14.048,0h3.528l1.161,4.617v.014Zm-9.3,0L10.153,0h3.34L12.33,4.614l0,.017Z" transform="translate(0.05 4.567)"/></g><g transform="translate(99.6 40.542)"><path class="a" d="M807.9,1201.559a4.967,4.967,0,0,0-2.461-.605,5.266,5.266,0,0,0-2.194.451,4.137,4.137,0,0,0-1.372.984v-7.215h-3.244v18.2h3.244v-6.81a2.946,2.946,0,0,1,.685-2.092,2.462,2.462,0,0,1,1.874-.723,2.4,2.4,0,0,1,1.84.722,2.976,2.976,0,0,1,.675,2.094v6.81h3.245v-7.218a6.111,6.111,0,0,0-.6-2.811,4.2,4.2,0,0,0-1.688-1.787" transform="translate(-781.39 -1195.051)"/><rect class="a" width="3.245" height="12.024" transform="translate(31.454 5.903)"/><path class="a" d="M841.634,1205.424a5.338,5.338,0,0,0-2.818-.768,4.978,4.978,0,0,0-2.384.561,4.87,4.87,0,0,0-1.418,1.116v-1.655H831.77v17.951h3.245v-7.136a5.191,5.191,0,0,0,1.44,1.119,4.934,4.934,0,0,0,2.363.55,5.23,5.23,0,0,0,2.819-.79,5.547,5.547,0,0,0,1.994-2.224,7.135,7.135,0,0,0,.732-3.282,7,7,0,0,0-.732-3.26,5.42,5.42,0,0,0-2-2.181m-1.005,7.27a3.079,3.079,0,0,1-1.114,1.177,2.907,2.907,0,0,1-2.964.01,3,3,0,0,1-1.113-1.165,4.061,4.061,0,0,1,0-3.613,3,3,0,0,1,1.113-1.165,2.89,2.89,0,0,1,1.472-.4,3,3,0,0,1,1.494.391,2.943,2.943,0,0,1,1.112,1.144,3.622,3.622,0,0,1,.424,1.795,3.731,3.731,0,0,1-.424,1.828" transform="translate(-794.32 -1199.17)"/><path class="a" d="M915.924,1206.265a4.952,4.952,0,0,0-1.418-1.076,5.112,5.112,0,0,0-2.383-.534,5.476,5.476,0,0,0-2.819.744,5.307,5.307,0,0,0-2,2.123,6.614,6.614,0,0,0-.732,3.146,6.718,6.718,0,0,0,.732,3.178A5.432,5.432,0,0,0,909.3,1216a5.319,5.319,0,0,0,2.8.764,5.157,5.157,0,0,0,2.405-.543,4.717,4.717,0,0,0,1.418-1.094v1.576h3.266v-12.027h-3.266Zm-1.526,7.322a3.07,3.07,0,0,1-1.5.389,2.893,2.893,0,0,1-1.471-.4,2.988,2.988,0,0,1-1.113-1.149,3.53,3.53,0,0,1-.425-1.76,3.411,3.411,0,0,1,.425-1.738,2.905,2.905,0,0,1,1.1-1.107,3.009,3.009,0,0,1,1.483-.379,3.058,3.058,0,0,1,1.5.39,2.863,2.863,0,0,1,1.112,1.116,3.947,3.947,0,0,1,0,3.52,2.859,2.859,0,0,1-1.112,1.117" transform="translate(-823.441 -1198.774)"/><path class="a" d="M943.64,1207.605a5.422,5.422,0,0,0-2-2.181,5.338,5.338,0,0,0-2.817-.768,4.978,4.978,0,0,0-2.384.561,4.872,4.872,0,0,0-1.418,1.116v-1.655H931.78v17.951h3.244v-7.136a5.194,5.194,0,0,0,1.44,1.119,4.934,4.934,0,0,0,2.363.55,5.23,5.23,0,0,0,2.819-.79,5.549,5.549,0,0,0,1.994-2.224,7.141,7.141,0,0,0,.732-3.282,7.007,7.007,0,0,0-.732-3.26m-3,5.089a3.075,3.075,0,0,1-1.114,1.177,2.908,2.908,0,0,1-2.964.01,3,3,0,0,1-1.112-1.165,4.059,4.059,0,0,1,0-3.613,3,3,0,0,1,1.112-1.165,2.893,2.893,0,0,1,1.472-.4,3,3,0,0,1,1.494.391,2.941,2.941,0,0,1,1.111,1.144,3.622,3.622,0,0,1,.424,1.795,3.731,3.731,0,0,1-.424,1.828" transform="translate(-833.337 -1199.17)"/><path class="a" d="M783.207,1208.472a5.822,5.822,0,1,1-.013-8.87l.146.123,2.662-1.944-.2-.2a9.072,9.072,0,1,0,.013,12.91l.2-.2-2.662-1.942Z" transform="translate(-770.364 -1194.972)"/><path class="a" d="M893.669,1201.695a4.965,4.965,0,0,0-2.461-.605,5.262,5.262,0,0,0-2.194.451,4.134,4.134,0,0,0-1.372.984v-7.215H884.4v18.2h3.245V1206.7a2.944,2.944,0,0,1,.685-2.092,2.461,2.461,0,0,1,1.874-.723,2.4,2.4,0,0,1,1.84.722,2.976,2.976,0,0,1,.675,2.094v6.811h3.244v-7.218a6.11,6.11,0,0,0-.6-2.811,4.2,4.2,0,0,0-1.688-1.787" transform="translate(-814.854 -1195.104)"/><path class="a" d="M868.98,1208.608a5.822,5.822,0,1,1-.013-8.87l.147.124,2.661-1.944-.2-.2a9.072,9.072,0,1,0,.013,12.91l.2-.2-2.662-1.942Z" transform="translate(-803.819 -1195.026)"/><path class="a" d="M823.584,1195.173a1.627,1.627,0,1,0,1.628,1.628,1.629,1.629,0,0,0-1.628-1.628" transform="translate(-790.503 -1195.051)"/></g></g></svg>